HIERARCHY
ROOT Hips
{
  OFFSET 13.6774 106.653 -34.4427
  CHANNELS 6 Xposition Yposition Zposition Zrotation Xrotation Yrotation
  JOINT ToSpine
  {
    OFFSET -2.69724 7.43032 -0.144315
    CHANNELS 3 Zrotation Xrotation Yrotation
    JOINT Spine
    {
      OFFSET -0.0310711 10.7595 1.96963
      CHANNELS 3 Zrotation Xrotation Yrotation
      JOINT Spine1
      {
        OFFSET 19.9056 3.91189 0.764692
        CHANNELS 3 Zrotation Xrotation Yrotation
        JOINT Neck
        {
          OFFSET 25.9749 7.03908 -0.130764
          CHANNELS 3 Zrotation Xrotation Yrotation
          JOINT Head
          {
            OFFSET 9.52751 0.295786 -0.907742
            CHANNELS 3 Zrotation Xrotation Yrotation
            End Site
            {
              OFFSET 16.4037 0.713936 2.7358
            }
          }
        }
        JOINT LeftShoulder
        {
          OFFSET 17.7449 4.33886 11.7777
          CHANNELS 3 Zrotation Xrotation Yrotation
          JOINT LeftArm
          {
            OFFSET 0.911315 1.27913 9.80584
            CHANNELS 3 Zrotation Xrotation Yrotation
            JOINT LeftForeArm
            {
              OFFSET 28.6126 1.18197 -3.53199
              CHANNELS 3 Zrotation Xrotation Yrotation
              JOINT LeftHand
              {
                OFFSET 27.5088 0.0218783 0.327423
                CHANNELS 3 Zrotation Xrotation Yrotation
                End Site
                {
                  OFFSET 18.6038 -0.000155887 0.382096
                }
              }
            }
          }
        }
        JOINT RightShoulder
        {
          OFFSET 17.1009 2.89543 -12.2328
          CHANNELS 3 Zrotation Xrotation Yrotation
          JOINT RightArm
          {
            OFFSET 1.4228 0.178766 -10.211
            CHANNELS 3 Zrotation Xrotation Yrotation
            JOINT RightForeArm
            {
              OFFSET 28.733 1.87905 2.64907
              CHANNELS 3 Zrotation Xrotation Yrotation
              JOINT RightHand
              {
                OFFSET 27.4588 0.290562 -0.101845
                CHANNELS 3 Zrotation Xrotation Yrotation
                End Site
                {
                  OFFSET 17.8396 -0.255518 -0.000602873
                }
              }
            }
          }
        }
      }
    }
  }
  JOINT LeftUpLeg
  {
    OFFSET -5.61296 -2.22332 -10.2353
    CHANNELS 3 Zrotation Xrotation Yrotation
    JOINT LeftLeg
    {
      OFFSET 2.56703 -44.7417 -7.93097
      CHANNELS 3 Zrotation Xrotation Yrotation
      JOINT LeftFoot
      {
        OFFSET 3.16933 -46.5642 -3.96578
        CHANNELS 3 Zrotation Xrotation Yrotation
        JOINT LeftToeBase
        {
          OFFSET 0.346054 -6.02161 12.8035
          CHANNELS 3 Zrotation Xrotation Yrotation
          End Site
          {
            OFFSET 0.134235 -1.35082 5.13018
          }
        }
      }
    }
  }
  JOINT RightUpLeg
  {
    OFFSET -5.7928 -1.72406 10.6446
    CHANNELS 3 Zrotation Xrotation Yrotation
    JOINT RightLeg
    {
      OFFSET -2.57161 -44.7178 -7.85259
      CHANNELS 3 Zrotation Xrotation Yrotation
      JOINT RightFoot
      {
        OFFSET -3.10148 -46.5936 -4.03391
        CHANNELS 3 Zrotation Xrotation Yrotation
        JOINT RightToeBase
        {
          OFFSET -0.0828122 -6.13587 12.8035
          CHANNELS 3 Zrotation Xrotation Yrotation
          End Site
          {
            OFFSET -0.131328 -1.35082 5.13018
          }
        }
      }
    }
  }
}
MOTION
Frames: 19
Frame Time: 0.03333333333333333
0.0000 93.1000 0.0000 11.0329 -46.5310 -80.2444 -70.9906 -0.5655 88.0023 131.9004 75.6483 -46.4949 -10.1441 31.0836 -2.2680 -168.3884 32.4394 173.8484 -158.2938 72.1637 -168.2121 0.4430 -12.2766 -23.8070 -65.0391 62.3796 -57.6507 14.4772 3.3612 -77.3950 -0.2325 -0.5999 0.4691 -2.0644 7.9794 29.3410 -101.9920 -30.8310 91.6272 19.0727 1.5970 96.0035 0.2735 0.6029 0.6334 -2.2212 4.0326 103.8347 -9.0107 62.4327 -18.0622 -7.2238 -4.0192 0.0611 13.2079 -26.5356 22.3841 -62.2549 4.0276 85.3386 0.9953 36.5549 6.9451 -0.2283 19.9729 -2.2461 0.5741 -4.5157 -2.6447 
0.0000 93.1000 0.0000 12.8495 -48.0826 -78.3478 -70.9913 -0.4070 88.0008 127.9404 75.2802 -43.0552 -8.4332 29.4628 -1.4511 -165.1058 31.8570 173.0652 -161.3751 71.7350 -163.5029 0.3125 -12.8407 -27.1127 -69.1883 60.0304 -58.5168 15.1571 2.6304 -79.0931 0.0796 -0.3663 0.2571 -2.3647 7.6953 36.6041 -93.8803 -29.5173 87.9700 19.0790 -0.2678 90.5248 0.1495 0.3642 0.3312 -7.9919 3.8884 104.6775 -9.8215 62.9231 -17.2123 -7.0697 -4.8142 -0.0054 12.9356 -25.7072 19.8213 -57.5522 5.0666 85.9647 2.7625 54.5385 -1.0574 -2.8286 16.0572 -1.5146 0.6133 -3.4060 -8.8942 
0.0000 93.1000 0.0000 12.6777 -49.9199 -78.5599 -70.9918 -0.0160 87.9969 122.0221 74.4762 -38.8904 -6.8833 27.7682 -0.4287 -161.4660 30.4142 172.1125 -162.2343 69.9687 -158.7926 -0.0708 -12.7234 -30.3926 -77.1224 56.1141 -57.5652 17.4585 0.8905 -84.0464 -0.1239 0.0507 -0.1014 -2.8127 7.4469 42.9370 -83.2699 -30.2966 86.2635 17.8740 -2.7178 80.7168 -0.0632 -0.1632 -0.2811 -16.2469 2.0241 103.2909 -10.0930 65.0748 -14.8983 -4.1058 -10.8283 -0.5962 10.1688 -19.1798 14.4244 -48.5461 4.8973 85.4971 8.7303 75.9637 -14.4692 -7.4453 13.5372 -0.5747 0.2847 -4.4526 -7.0193 
0.0000 93.1000 0.0000 12.8400 -51.0283 -80.2662 -70.9898 0.3987 87.9973 116.0900 72.9472 -37.2690 -5.2064 25.6788 -0.5100 -160.1146 27.8783 172.0294 -162.2571 67.3533 -155.7628 1.6407 -12.4913 -32.1167 -84.0693 51.8043 -61.5193 19.5992 -0.4750 -89.1763 -0.1125 -0.2953 0.1423 -1.9073 6.9180 45.6244 -73.8527 -32.5885 85.7265 14.8260 -5.4582 70.0378 0.5459 0.4224 0.3871 -23.5190 -0.6108 101.9966 -10.2519 65.3781 -14.2727 -1.1784 -18.0127 -2.1902 8.5070 -18.0408 14.4911 -33.7428 1.4984 85.0425 151.2584 79.8927 -162.5775 -12.9281 10.7988 0.2887 2.0289 -7.9425 1.4324 
0.0000 93.1000 0.0000 12.9913 -50.6665 -81.0318 -70.9991 0.6262 87.9978 112.0907 70.8261 -33.8323 -4.4949 23.4509 0.0242 -163.4251 25.9812 172.7095 -164.1921 65.7493 -155.8534 1.3614 -13.2083 -32.8772 -84.1930 48.4549 -72.4356 22.0543 -2.0939 -93.7885 0.0654 -0.1237 -0.0346 -2.1666 7.0732 47.1485 -68.9687 -36.8877 80.0339 8.7427 -5.2266 63.6352 -0.1713 0.3879 0.0595 -29.4272 -3.1125 99.8553 -9.1287 63.1905 -13.9295 0.1711 -22.5769 -3.0624 9.8228 -20.5800 17.5210 -15.1969 -0.6221 85.7996 172.8735 67.7208 173.5806 -16.7646 7.6573 1.3161 2.1784 -16.8779 2.5466 
0.0000 93.1000 0.0000 12.8024 -49.8053 -79.1832 -71.0003 0.9794 87.9978 112.0291 69.7353 -30.9901 -4.4560 20.9676 0.9443 -164.2894 24.0271 172.7743 -160.3512 63.9145 -158.7688 0.5308 -12.8614 -30.3895 -83.2014 48.3699 -83.6173 23.8693 -4.8731 -98.3459 -0.1581 0.1921 -0.2454 -2.7811 6.9424 48.4289 -66.9573 -40.0604 68.4998 4.5650 -2.9754 63.8430 -0.5521 -0.0226 -0.2592 -37.7593 -2.8160 95.4253 -6.9684 58.2293 -14.7742 -0.6295 -22.7254 -2.6679 11.3851 -22.9176 16.7217 -0.8722 -1.6153 84.8869 168.1373 69.6619 176.5496 -14.8153 3.3699 1.5535 1.1495 -19.7424 4.3624 
0.0000 93.1000 0.0000 13.0003 -50.3521 -74.8393 -70.9996 0.3308 87.9960 112.8729 67.0123 -30.4779 -5.0080 18.0143 3.6567 -163.3328 22.2486 172.7832 -155.2447 61.9786 -163.3728 0.7832 -11.9083 -26.3902 -84.9026 49.7695 -84.5265 22.8294 -6.1925 -105.6887 -0.1533 -0.4336 -0.0360 -2.9166 6.7866 47.9239 -63.0741 -42.4166 59.9763 1.9696 -1.1515 66.0632 0.5305 0.4993 0.3048 -48.3185 0.4436 92.2255 -5.2279 50.0712 -15.2859 -2.9132 -17.6366 -1.4313 12.3879 -26.1219 12.9308 6.0264 -2.4620 82.1403 169.8282 80.1675 -180.0721 -14.3761 -0.9397 1.1162 1.4945 -22.8617 -5.8853 
0.0000 93.1000 0.0000 11.7948 -50.4678 -74.1110 -71.0025 -0.2880 87.9980 113.0235 65.3664 -28.3098 -5.9534 15.0214 6.2283 -164.4477 19.5538 173.2546 -151.3820 59.0493 -168.6992 1.0326 -11.5545 -25.1277 -83.9538 49.3476 -83.5826 19.1499 -7.0781 -108.6608 0.0706 -0.5182 -0.0687 -2.7819 6.8986 47.3952 -62.9362 -43.6024 52.9277 0.6202 -1.3019 67.7764 0.1816 0.6147 0.6455 -58.1739 2.3201 90.0895 -3.9385 41.0943 -14.1620 -7.0015 -1.9219 0.2331 11.7293 -26.1929 4.9530 7.2466 -2.2987 80.0708 27.0017 78.8214 -33.3952 -9.8486 -2.4428 0.6891 0.1018 -22.9007 -15.0365 
0.0000 93.1000 0.0000 10.1338 -50.1228 -75.0647 -71.0065 0.1180 87.9984 113.0530 64.4291 -25.5547 -5.1927 14.1553 6.4497 -164.3243 18.0290 173.3753 -149.6027 57.2014 -171.8946 0.3703 -11.6970 -23.9940 -82.1717 48.2842 -82.4948 16.0920 -6.1683 -107.3284 -0.0501 0.0238 -0.0606 -3.0202 7.0004 46.5987 -66.7445 -43.1480 48.8341 0.6908 -0.7994 69.0984 0.0863 0.1893 0.0479 -63.6374 3.7117 87.9401 -3.8189 36.2518 -15.0163 -11.0094 10.0365 2.3816 6.0961 -14.9905 4.0578 4.4100 -2.0724 79.0844 3.7191 60.4319 3.8063 -6.0175 -0.4622 -0.0461 1.1378 -29.0345 -32.9593 
0.0000 93.1000 0.0000 8.7400 -50.3186 -77.0196 -71.0087 0.1971 88.0024 108.8869 64.0085 -22.3056 -3.2639 14.0337 6.5948 -164.3797 17.8866 173.0283 -147.4404 57.1355 -174.5299 0.9731 -12.4846 -25.8319 -80.1509 47.9485 -80.4570 13.1888 -3.3286 -98.5198 0.2899 0.0723 0.0011 -2.6507 7.0339 48.1676 -70.0642 -40.1900 50.6602 0.1708 -0.8869 69.8581 -0.0073 0.1824 0.0056 -63.9255 0.9880 85.2320 -3.8686 45.1601 -10.1505 -10.5046 10.9253 2.1484 1.5413 -5.8362 6.0415 2.0804 -1.0992 79.0308 3.6774 53.3539 9.9238 -5.4646 0.9473 0.1363 2.7356 -32.4659 -36.6847 
0.0000 93.1000 0.0000 9.1061 -52.3952 -79.9463 -71.0092 -0.1684 88.0069 113.0200 63.6235 -26.4594 -2.4533 14.8958 5.6541 -163.2910 18.0973 174.1953 -146.5355 57.2764 -173.2171 0.8367 -13.3268 -28.1775 -78.1181 48.0480 -78.5588 9.6564 -0.1134 -85.1177 0.0853 -0.0901 0.0757 -2.8164 6.6307 50.2600 -74.2387 -36.1254 54.9467 1.3166 -1.0146 71.6631 -0.0584 0.3558 0.2787 -59.4619 -1.3275 86.7077 -6.1804 62.4522 -2.6577 -9.6657 7.1376 1.7789 0.0833 -2.6172 8.1934 -3.1930 -0.6459 79.7751 3.9164 57.0335 2.6723 -5.5689 -5.5084 0.4295 2.3198 -21.5245 -25.9934 
0.0000 93.1000 0.0000 6.0379 -55.0975 -83.0046 -71.0044 -0.1278 88.0073 122.9948 63.8531 -35.4718 -3.0787 16.2430 4.0896 -163.4010 19.0148 177.3511 -150.6007 58.8446 -168.2852 0.6106 -13.6589 -30.0766 -74.8927 50.3658 -79.5944 7.9166 2.0157 -71.0472 -0.3223 0.0112 -0.2714 -2.8982 6.1530 50.0991 -76.8474 -33.1407 63.0767 5.4093 -2.5884 73.9112 -0.3527 0.1301 0.2972 -50.0817 1.7152 89.1396 -24.3029 80.0425 15.6230 -8.3400 6.1385 1.3125 1.4837 -7.3100 9.2885 -11.6515 1.9412 79.2883 3.7777 60.2403 -3.0280 -5.8258 -18.4819 1.1289 0.4130 -2.3467 -15.1763 
0.0000 93.1000 0.0000 -0.9663 -55.9468 -87.9651 -70.9966 -0.1526 88.0028 130.8808 64.2100 -40.0890 -3.4041 19.0371 2.5741 -167.3166 19.7380 178.1072 -152.6974 59.2434 -168.2710 0.3207 -12.9874 -31.1359 -72.1494 53.2638 -76.6230 7.5743 3.7393 -62.3703 0.0254 -0.0179 0.0746 -3.0493 6.0352 47.8544 -79.0741 -34.1073 73.6378 10.2760 -2.8455 76.9020 0.0749 0.0299 0.0181 -35.8823 6.1030 91.8043 -140.4961 81.2809 130.8583 -5.6112 4.5295 0.7781 3.5578 -12.0929 8.8398 -20.7388 6.6154 80.1412 2.9667 59.1230 -2.9017 -7.0084 -27.6325 1.4029 0.6634 -0.7175 -17.5262 
0.0000 93.1000 0.0000 -8.0107 -54.4293 -96.1532 -70.9959 -0.2044 88.0014 134.0606 67.0152 -43.2055 -4.8588 23.0099 1.2485 -169.3736 20.1331 178.5059 -151.5796 59.0126 -172.3723 0.4268 -12.3075 -31.9894 -68.2593 57.0873 -70.7431 5.2287 2.8587 -62.3385 0.1695 -0.0440 0.1808 -2.6987 7.2236 41.9848 -79.9340 -38.0783 83.0051 15.4231 -1.9982 83.7446 0.0132 0.0543 0.1467 -19.2760 7.8298 93.0374 -158.7734 76.3081 148.8246 -4.2404 1.7593 0.0914 4.9862 -14.1446 8.8560 -28.7668 8.8553 83.1923 3.9767 56.2919 1.0899 -6.0842 -30.7300 1.4177 2.8999 -5.3199 -21.6153 
0.0000 93.1000 0.0000 -9.8547 -52.3737 -100.1756 -71.0052 -0.7422 88.0013 131.9498 70.6952 -44.1986 -7.0410 25.1486 1.6509 -167.3212 21.2439 176.4863 -149.3639 59.8947 -174.4167 -0.5692 -11.7963 -30.0829 -61.8039 60.0639 -65.4743 5.2964 1.9087 -66.9546 -0.0779 -0.3280 0.4261 -3.1808 7.2236 38.1994 -80.8181 -42.0135 87.9524 18.8900 1.2231 93.6421 0.4623 0.3521 0.1038 -6.2952 8.1242 93.7618 -150.7636 80.2725 143.7318 -3.4817 -0.3650 0.6013 4.9308 -13.8960 10.6082 -38.7433 7.4497 86.8301 2.9227 49.9956 1.8129 -4.1290 -25.1940 0.6269 3.2443 -15.6287 -12.1329 
0.0000 93.1000 0.0000 -7.9332 -51.9132 -101.2782 -71.0049 -0.5827 88.0082 128.9557 73.3362 -43.5024 -8.3584 26.7059 2.5038 -165.4267 22.1359 174.1822 -149.3940 61.0684 -174.9973 -0.1002 -11.2516 -26.8855 -58.5028 64.2743 -61.0373 6.8225 1.9310 -69.4058 -0.0572 -0.2672 0.1405 -2.7722 7.3384 36.1654 -79.9159 -43.2100 91.0204 20.9652 4.6844 102.8853 0.5012 0.2600 0.3709 -0.1517 5.1331 94.1339 -37.0550 83.3091 30.7675 -3.5223 -0.2028 0.2323 4.9021 -15.1032 12.8068 -51.8449 3.4734 86.1426 0.7467 39.3107 3.0446 -3.2560 -9.3766 0.1850 2.8029 -25.5628 6.5439 
0.0000 93.1000 0.0000 -8.9820 -53.3998 -102.2632 -70.9977 0.4967 88.0061 125.9061 75.2367 -40.1515 -7.3403 28.2376 1.0262 -164.4315 23.9435 176.4974 -153.3742 63.0129 -172.9837 0.3014 -11.2089 -24.7557 -62.9940 67.0156 -52.8559 4.9514 1.8044 -71.2483 -0.0842 0.6177 -0.1950 -2.3370 7.4979 33.0308 -79.7283 -45.0789 90.7548 21.0576 7.9857 109.8812 0.0142 -0.5209 -0.0079 -0.2458 3.1132 94.0849 -6.9732 64.4334 -1.0641 -5.4033 1.1759 0.0947 4.8614 -14.0452 13.5273 -62.9703 -1.4740 81.0665 -0.1627 30.3862 16.7390 0.4203 10.6215 -0.5770 1.5292 -27.0439 8.3862 
0.0000 93.1000 0.0000 -8.0030 -53.1709 -101.1939 -71.0002 0.6659 88.0040 114.9505 77.6178 -27.0707 -5.1391 29.2112 -0.4320 -164.4422 25.1813 176.2465 -156.0516 64.7962 -170.9819 0.4888 -11.3860 -23.3900 -71.0637 68.0985 -42.8619 5.2750 1.3041 -73.2933 0.0030 0.7405 -0.2607 -2.1449 7.3297 31.8497 -78.8570 -44.8121 88.7995 20.7867 8.3887 110.7009 -0.4277 -0.5199 -0.0139 -2.9711 0.7478 92.8578 -3.8429 42.3188 -9.8891 -8.6208 5.5806 0.9514 5.9620 -14.9554 14.4994 -69.4083 -3.7680 81.1561 -2.1733 28.0867 29.8531 1.7127 17.6884 -1.1694 2.8439 -19.5852 -18.7121 
0.0000 93.1000 0.0000 -8.9345 -53.4663 -99.0563 -70.9916 0.3777 88.0040 109.8875 78.0598 -20.1966 -4.2249 29.2630 -1.2491 -162.4181 25.2069 176.2047 -158.2941 65.0662 -168.3335 1.0334 -10.7056 -24.2380 -79.0680 67.1405 -36.7968 7.0694 0.6889 -77.0661 0.2481 0.2771 -0.2627 -1.9165 6.8950 33.1211 -76.9342 -44.3214 85.9200 21.0313 6.2133 105.7027 -0.3927 -0.2047 0.2119 -5.2134 2.2326 94.0504 -3.2611 32.3335 -12.9782 -10.1587 8.6833 1.2028 8.1602 -19.2919 15.4892 -70.8321 3.3699 88.8402 0.8198 38.3242 2.7835 -2.1193 14.4420 -0.5631 1.1370 -14.1311 -11.1398 
